<svg id="Layer_1" data-name="Layer 1" xmlns="http://www.w3.org/2000/svg" viewBox="0 0 648.6 297.89"><title>insider</title><path d="M180.64,361.08V215.33a1,1,0,0,1,1-1h25.47a1,1,0,0,1,1,1V361.08a1,1,0,0,1-1,1H181.61A1,1,0,0,1,180.64,361.08Z" transform="translate(-96.41 -148.69)" style="fill:#010101"/><path d="M412.33,332.69q0,15.21-10.57,23.16t-31.61,8a99.09,99.09,0,0,1-18.39-1.46,69.67,69.67,0,0,1-13.64-4,1,1,0,0,1-.6-.9V337.29a1,1,0,0,1,1.36-.88,95.71,95.71,0,0,0,15.57,5.3A68.48,68.48,0,0,0,371,344.1q14.68,0,14.68-8.49a7.09,7.09,0,0,0-1.95-5.17,28.16,28.16,0,0,0-6.72-4.51q-4.77-2.52-12.73-5.88-11.4-4.77-16.76-8.84a24.82,24.82,0,0,1-7.78-9.33,30.76,30.76,0,0,1-2.43-13q0-13.18,10.21-20.38t29-7.2a82,82,0,0,1,33.88,7.39,1,1,0,0,1,.5,1.27l-7.39,17.68a1,1,0,0,1-1.28.51q-6.92-2.92-13-4.83a43.6,43.6,0,0,0-13.18-2q-11.94,0-11.94,6.46,0,3.63,3.85,6.28t16.84,7.87q11.58,4.69,17,8.75a25.89,25.89,0,0,1,8,9.37A28.81,28.81,0,0,1,412.33,332.69Z" transform="translate(-96.41 -148.69)" style="fill:#010101"/><path d="M421,237.64q0-13.17,14.68-13.18t14.68,13.18q0,6.28-3.67,9.77t-11,3.5Q421,250.91,421,237.64ZM448.19,362h-25a1,1,0,0,1-1-1V264.16a1,1,0,0,1,1-1h25a1,1,0,0,1,1,1v96.91A1,1,0,0,1,448.19,362Z" transform="translate(-96.41 -148.69)" style="fill:#010101"/><path d="M504.59,363.82q-17.42,0-27.36-13.53t-9.95-37.49q0-24.32,10.12-37.89t27.9-13.57q18.65,0,28.47,14.5h.88a110.22,110.22,0,0,1-2-19.72V225.44a1,1,0,0,1,1-1H558.7a1,1,0,0,1,1,1V361.08a1,1,0,0,1-1,1H539.63a1,1,0,0,1-.9-.6l-5-12.22h-.62a1,1,0,0,0-.81.44Q523.13,363.82,504.59,363.82ZM514,342.33q10.34,0,15.16-6t5.26-20.43V313q0-15.91-4.91-22.81t-16-6.9a15.83,15.83,0,0,0-14,7.65q-5,7.65-5,22.24t5,21.88Q504.67,342.33,514,342.33Z" transform="translate(-96.41 -148.69)" style="fill:#010101"/><path d="M627.71,363.82q-23.87,0-37.31-13.17T577,313.33q0-24.84,12.42-38.42t34.35-13.57q21,0,32.63,11.94t11.67,33v12.12a1,1,0,0,1-1,1H605.31a1,1,0,0,0-1,1q.68,10.76,6.76,16.92,6.37,6.46,17.86,6.46a74.17,74.17,0,0,0,16.88-1.86,83.11,83.11,0,0,0,15.25-5.29,1,1,0,0,1,1.37.87v18.75a1,1,0,0,1-.55.88,63.64,63.64,0,0,1-14.58,5A95.48,95.48,0,0,1,627.71,363.82Zm-3.8-83.29q-8.58,0-13.44,5.44-4.61,5.15-5.48,14.37a1,1,0,0,0,1,1.06h35.78a1,1,0,0,0,1-1q-.4-9.26-5.19-14.42Q632.49,280.53,623.91,280.53Z" transform="translate(-96.41 -148.69)" style="fill:#010101"/><path d="M736,261.34a46.46,46.46,0,0,1,8.27.62,1,1,0,0,1,.77,1l-1.88,23.3a1,1,0,0,1-1.15.87,33.33,33.33,0,0,0-6.9-.63q-12.91,0-20.12,6.63t-7.2,18.57v49.34a1,1,0,0,1-1,1h-25a1,1,0,0,1-1-1V264.16a1,1,0,0,1,1-1h18.69a1,1,0,0,1,.94.74L705,279.07a1,1,0,0,0,.94.74h0a1,1,0,0,0,.83-.49,37.12,37.12,0,0,1,12.15-12.91A30.63,30.63,0,0,1,736,261.34Z" transform="translate(-96.41 -148.69)" style="fill:#010101"/><path d="M313.42,270.67q-8.93-9.33-26.17-9.33a45.35,45.35,0,0,0-18,3.67,29.93,29.93,0,0,0-15.3,14.5,1,1,0,0,1-1.83-.41l-.39-15a1,1,0,0,0-1-.94H232.07a1,1,0,0,0-1,1v96.91a1,1,0,0,0,1,1h25a1,1,0,0,0,1-1V315.54q0-17.51,5-25.07t16.36-7.56q8.31,0,12.11,5.35t3.8,16.05v56.77a1,1,0,0,0,1,1h25a1,1,0,0,0,1-1V297.59Q322.35,280,313.42,270.67Z" transform="translate(-96.41 -148.69)" style="fill:#010101"/><path d="M303.35,407.08A128.63,128.63,0,1,1,343.26,215l14.7-8.44A145.53,145.53,0,1,0,311.12,422L324,446.59l34-65.06H290Z" transform="translate(-96.41 -148.69)" style="fill:#010101"/></svg>